<svg width="412" height="179" viewBox="0 0 412 179" fill="none" xmlns="http://www.w3.org/2000/svg">
<g clip-path="url(#clip0_8_44)">
<path d="M96.1064 100.004H30.5361V166H4.77637V11.0156H105.474V32.1982H30.5361V78.9277H96.1064V100.004ZM142.325 11.0156L161.485 77.3311L182.668 11.0156H214.495V166H190.438V113.416L191.929 44.2266L168.085 118.206H154.779L133.171 46.7812L134.554 113.416V166H110.604V11.0156H142.325Z" fill="white"/>
<rect x="229" y="5" width="171" height="96" rx="15" fill="#38B6FF"/>
<path d="M267.848 152.042C267.848 151.411 267.718 150.854 267.458 150.372C267.198 149.89 266.833 149.457 266.363 149.073C265.868 148.715 265.281 148.393 264.601 148.108C263.933 147.812 263.184 147.546 262.355 147.311C261.081 146.952 259.906 146.513 258.83 145.993C257.766 145.461 256.857 144.868 256.103 144.212C255.348 143.544 254.754 142.789 254.321 141.948C253.901 141.095 253.69 140.136 253.69 139.072C253.69 137.922 253.938 136.889 254.433 135.974C254.927 135.046 255.595 134.254 256.437 133.599C257.278 132.955 258.255 132.467 259.368 132.133C260.494 131.786 261.675 131.613 262.912 131.613C264.223 131.613 265.442 131.817 266.567 132.226C267.705 132.621 268.695 133.178 269.536 133.896C270.377 134.625 271.039 135.497 271.521 136.512C272.016 137.514 272.264 138.627 272.264 139.852H267.848C267.786 139.171 267.637 138.553 267.402 137.996C267.18 137.427 266.864 136.938 266.456 136.53C266.035 136.134 265.522 135.825 264.916 135.603C264.322 135.368 263.636 135.25 262.856 135.25C262.176 135.25 261.545 135.343 260.964 135.528C260.395 135.701 259.9 135.949 259.479 136.271C259.059 136.604 258.731 137.007 258.496 137.477C258.261 137.947 258.144 138.472 258.144 139.054C258.156 139.672 258.317 140.216 258.626 140.687C258.935 141.144 259.35 141.546 259.869 141.893C260.401 142.239 261.007 142.542 261.688 142.802C262.38 143.062 263.104 143.303 263.858 143.525C264.811 143.798 265.739 144.138 266.642 144.546C267.557 144.942 268.398 145.424 269.165 145.993C270.118 146.711 270.878 147.57 271.447 148.572C272.029 149.562 272.319 150.706 272.319 152.005C272.319 153.205 272.066 154.262 271.559 155.178C271.064 156.093 270.396 156.854 269.555 157.46C268.701 158.091 267.712 158.567 266.586 158.889C265.46 159.198 264.273 159.353 263.023 159.353C261.7 159.353 260.395 159.148 259.108 158.74C257.822 158.32 256.702 157.714 255.75 156.922C254.872 156.18 254.173 155.308 253.653 154.306C253.146 153.304 252.886 152.153 252.874 150.854H257.327C257.389 151.683 257.562 152.407 257.847 153.025C258.144 153.632 258.546 154.132 259.053 154.528C259.548 154.937 260.129 155.24 260.797 155.438C261.477 155.635 262.219 155.734 263.023 155.734C263.704 155.734 264.335 155.654 264.916 155.493C265.51 155.332 266.023 155.091 266.456 154.77C266.877 154.46 267.211 154.077 267.458 153.619C267.718 153.161 267.848 152.636 267.848 152.042ZM294.826 150.688C294.702 151.999 294.393 153.192 293.898 154.269C293.404 155.332 292.754 156.242 291.95 156.996C291.134 157.763 290.163 158.357 289.037 158.777C287.924 159.186 286.687 159.39 285.326 159.39C284.213 159.39 283.186 159.241 282.246 158.944C281.318 158.635 280.49 158.202 279.76 157.646C279.055 157.126 278.436 156.501 277.904 155.771C277.385 155.029 276.946 154.219 276.587 153.341C276.228 152.475 275.956 151.535 275.771 150.521C275.597 149.506 275.511 148.449 275.511 147.348V143.655C275.511 142.604 275.597 141.59 275.771 140.612C275.944 139.635 276.203 138.714 276.55 137.848C276.921 136.883 277.397 136.011 277.979 135.231C278.572 134.44 279.253 133.766 280.02 133.209C280.749 132.702 281.553 132.306 282.432 132.021C283.322 131.737 284.293 131.595 285.345 131.595C286.767 131.595 288.035 131.805 289.148 132.226C290.274 132.646 291.233 133.24 292.024 134.007C292.828 134.786 293.459 135.726 293.917 136.827C294.387 137.928 294.69 139.153 294.826 140.501H290.373C290.299 139.697 290.144 138.973 289.909 138.33C289.687 137.674 289.377 137.118 288.981 136.66C288.573 136.202 288.072 135.856 287.479 135.621C286.885 135.374 286.174 135.25 285.345 135.25C284.763 135.25 284.238 135.33 283.768 135.491C283.31 135.652 282.902 135.881 282.543 136.178C282.048 136.536 281.634 137.007 281.3 137.588C280.978 138.157 280.712 138.794 280.502 139.499C280.341 140.118 280.217 140.779 280.131 141.484C280.057 142.177 280.02 142.888 280.02 143.618V147.348C280.02 148.251 280.069 149.098 280.168 149.89C280.279 150.681 280.446 151.405 280.669 152.061C280.842 152.605 281.059 153.1 281.318 153.545C281.59 153.99 281.912 154.374 282.283 154.695C282.667 155.042 283.106 155.308 283.601 155.493C284.108 155.666 284.683 155.753 285.326 155.753C286.093 155.753 286.773 155.642 287.367 155.419C287.961 155.196 288.468 154.868 288.889 154.436C289.297 154.015 289.625 153.489 289.872 152.858C290.119 152.228 290.28 151.504 290.354 150.688H294.826ZM316.869 159H312.509V146.958H303.417V159H299.075V131.984H303.417V143.284H312.509V131.984H316.869V159ZM340.545 147.292C340.545 148.381 340.446 149.432 340.248 150.446C340.062 151.461 339.79 152.419 339.432 153.322C339.048 154.225 338.572 155.06 338.003 155.827C337.434 156.582 336.778 157.231 336.036 157.775C335.319 158.27 334.521 158.66 333.643 158.944C332.777 159.229 331.824 159.371 330.785 159.371C329.709 159.371 328.719 159.223 327.816 158.926C326.926 158.617 326.128 158.196 325.423 157.664C324.705 157.12 324.075 156.464 323.53 155.697C322.998 154.93 322.553 154.089 322.194 153.174C321.848 152.296 321.588 151.362 321.415 150.372C321.242 149.37 321.155 148.343 321.155 147.292V143.729C321.155 142.629 321.248 141.565 321.434 140.538C321.619 139.511 321.897 138.54 322.269 137.625C322.627 136.747 323.066 135.943 323.586 135.213C324.118 134.471 324.743 133.827 325.46 133.283C326.153 132.751 326.938 132.343 327.816 132.059C328.707 131.762 329.684 131.613 330.748 131.613C331.824 131.613 332.814 131.762 333.717 132.059C334.62 132.355 335.43 132.77 336.147 133.302C336.865 133.834 337.49 134.458 338.021 135.176C338.553 135.893 338.999 136.679 339.357 137.532C339.753 138.448 340.05 139.431 340.248 140.482C340.446 141.521 340.545 142.604 340.545 143.729V147.292ZM336.055 143.692C336.042 143.012 335.999 142.344 335.925 141.688C335.863 141.033 335.752 140.408 335.591 139.814C335.405 139.134 335.158 138.516 334.849 137.959C334.552 137.39 334.187 136.908 333.754 136.512C333.37 136.165 332.931 135.893 332.437 135.695C331.942 135.497 331.379 135.398 330.748 135.398C330.142 135.398 329.598 135.497 329.115 135.695C328.633 135.881 328.212 136.141 327.854 136.475C327.421 136.883 327.056 137.371 326.759 137.94C326.462 138.497 326.233 139.122 326.072 139.814C325.924 140.408 325.812 141.039 325.738 141.707C325.676 142.363 325.646 143.024 325.646 143.692V147.292C325.646 147.948 325.676 148.597 325.738 149.24C325.8 149.883 325.905 150.502 326.054 151.096C326.215 151.764 326.431 152.388 326.703 152.97C326.988 153.539 327.328 154.021 327.724 154.417C328.107 154.788 328.546 155.085 329.041 155.308C329.548 155.518 330.13 155.623 330.785 155.623C331.416 155.623 331.985 155.518 332.492 155.308C333.012 155.097 333.457 154.813 333.828 154.454C334.261 154.046 334.62 153.563 334.904 153.007C335.201 152.438 335.436 151.813 335.609 151.133C335.758 150.539 335.863 149.921 335.925 149.277C335.999 148.622 336.042 147.96 336.055 147.292V143.692ZM363.367 147.292C363.367 148.381 363.268 149.432 363.07 150.446C362.885 151.461 362.613 152.419 362.254 153.322C361.87 154.225 361.394 155.06 360.825 155.827C360.256 156.582 359.601 157.231 358.858 157.775C358.141 158.27 357.343 158.66 356.465 158.944C355.599 159.229 354.646 159.371 353.607 159.371C352.531 159.371 351.542 159.223 350.639 158.926C349.748 158.617 348.95 158.196 348.245 157.664C347.528 157.12 346.897 156.464 346.353 155.697C345.821 154.93 345.375 154.089 345.017 153.174C344.67 152.296 344.41 151.362 344.237 150.372C344.064 149.37 343.978 148.343 343.978 147.292V143.729C343.978 142.629 344.07 141.565 344.256 140.538C344.441 139.511 344.72 138.54 345.091 137.625C345.45 136.747 345.889 135.943 346.408 135.213C346.94 134.471 347.565 133.827 348.282 133.283C348.975 132.751 349.76 132.343 350.639 132.059C351.529 131.762 352.507 131.613 353.57 131.613C354.646 131.613 355.636 131.762 356.539 132.059C357.442 132.355 358.252 132.77 358.97 133.302C359.687 133.834 360.312 134.458 360.844 135.176C361.376 135.893 361.821 136.679 362.18 137.532C362.576 138.448 362.872 139.431 363.07 140.482C363.268 141.521 363.367 142.604 363.367 143.729V147.292ZM358.877 143.692C358.865 143.012 358.821 142.344 358.747 141.688C358.685 141.033 358.574 140.408 358.413 139.814C358.228 139.134 357.98 138.516 357.671 137.959C357.374 137.39 357.009 136.908 356.576 136.512C356.193 136.165 355.754 135.893 355.259 135.695C354.764 135.497 354.201 135.398 353.57 135.398C352.964 135.398 352.42 135.497 351.938 135.695C351.455 135.881 351.035 136.141 350.676 136.475C350.243 136.883 349.878 137.371 349.581 137.94C349.284 138.497 349.055 139.122 348.895 139.814C348.746 140.408 348.635 141.039 348.561 141.707C348.499 142.363 348.468 143.024 348.468 143.692V147.292C348.468 147.948 348.499 148.597 348.561 149.24C348.622 149.883 348.728 150.502 348.876 151.096C349.037 151.764 349.253 152.388 349.525 152.97C349.81 153.539 350.15 154.021 350.546 154.417C350.929 154.788 351.368 155.085 351.863 155.308C352.37 155.518 352.952 155.623 353.607 155.623C354.238 155.623 354.807 155.518 355.314 155.308C355.834 155.097 356.279 154.813 356.65 154.454C357.083 154.046 357.442 153.563 357.727 153.007C358.023 152.438 358.258 151.813 358.432 151.133C358.58 150.539 358.685 149.921 358.747 149.277C358.821 148.622 358.865 147.96 358.877 147.292V143.692ZM372.737 155.326H385.633V159H368.266V131.984H372.737V155.326Z" fill="white"/>
<path d="M367.715 123.466C368.455 124.931 370.545 124.931 371.285 123.466L383.189 99.9018C383.862 98.5716 382.895 97 381.404 97H357.596C356.105 97 355.138 98.5716 355.811 99.9018L367.715 123.466Z" fill="#38B6FF"/>
<path d="M290.417 81.1113L238.65 58.9512V47.5137L290.417 25.4131V39.6504L256.164 52.041L252.53 53.3516L256.164 54.6025L290.417 66.874V81.1113Z" fill="white"/>
<path d="M307 95.5L334 10.5H383.5C391.459 10.5616 393.526 13.0161 393 21.5V83.5C392.951 92.0451 390.485 94.6204 382 95.5H307Z" fill="white"/>
<path d="M336.008 81.1113V66.9932L371.988 54.2451L375.622 53.1729L372.048 51.9814L336.008 39.4717V25.3535L389.204 47.4541V58.9512L336.008 81.1113Z" fill="#38B6FF"/>
</g>
<defs>
<clipPath id="clip0_8_44">
<rect width="412" height="179" fill="white"/>
</clipPath>
</defs>
</svg>
