<?xml version="1.0" encoding="UTF-8" standalone="no" ?>
<!DOCTYPE svg PUBLIC "-//W3C//DTD SVG 1.1//EN" "http://www.w3.org/Graphics/SVG/1.1/DTD/svg11.dtd">
<svg xmlns="http://www.w3.org/2000/svg" xmlns:xlink="http://www.w3.org/1999/xlink" version="1.1" width="1080" height="600" viewBox="0 0 1080 600" xml:space="preserve">
<desc>Created with Fabric.js 5.2.4</desc>
<defs>
</defs>
<g transform="matrix(Infinity NaN NaN Infinity 0 0)" id="6a0fbf04-1729-431d-8dc3-b162d2d578ea"  >
</g>
<g transform="matrix(1 0 0 1 540 300)" id="d983b6ad-305b-4a5b-9fb1-d101e5ad507e"  >
<rect style="stroke: none; stroke-width: 1; stroke-dasharray: none; stroke-linecap: butt; stroke-dashoffset: 0; stroke-linejoin: miter; stroke-miterlimit: 4; fill: rgb(255,255,255); fill-rule: nonzero; opacity: 1; visibility: hidden;" vector-effect="non-scaling-stroke"  x="-540" y="-300" rx="0" ry="0" width="1080" height="600" />
</g>
<g transform="matrix(1.65 0 0 1.65 540 300)"  >
<g style="opacity: 1;" vector-effect="non-scaling-stroke"   >
		<g transform="matrix(0.13 0 0 -0.13 275.74 -8.93)"  >
<path style="stroke: none; stroke-width: 1; stroke-dasharray: none; stroke-linecap: butt; stroke-dashoffset: 0; stroke-linejoin: miter; stroke-miterlimit: 4; fill: rgb(255,255,255); fill-rule: nonzero; opacity: 1;" vector-effect="non-scaling-stroke"  transform=" translate(-4602.23, -2493.8)" d="M 4244 3565 C 4241 3558 4240 3527 4242 3494 L 4245 3436 L 4290 3425 C 4394 3398 4473 3333 4486 3263 C 4493 3225 4485 3159 4455 3000 C 4436 2903 4440 2815 4466 2749 C 4494 2678 4565 2585 4630 2536 L 4691 2491 L 4663 2476 C 4614 2451 4531 2367 4496 2307 C 4434 2203 4428 2103 4470 1912 C 4516 1704 4476 1623 4300 1570 L 4245 1554 L 4245 1484 L 4245 1415 L 4275 1418 C 4443 1434 4598 1525 4689 1661 C 4766 1776 4777 1886 4735 2104 C 4704 2263 4707 2288 4769 2350 C 4815 2396 4871 2420 4933 2420 C 4954 2420 4958 2426 4962 2454 C 4964 2473 4964 2506 4962 2529 C 4959 2563 4954 2570 4936 2570 C 4886 2570 4809 2602 4771 2638 C 4708 2698 4703 2733 4734 2886 C 4786 3142 4762 3262 4630 3403 C 4546 3493 4438 3548 4307 3568 C 4263 3575 4247 3574 4244 3565 z" stroke-linecap="round" />
</g>
		<g transform="matrix(0.13 0 0 -0.13 -278.04 1.49)"  >
<path style="stroke: none; stroke-width: 1; stroke-dasharray: none; stroke-linecap: butt; stroke-dashoffset: 0; stroke-linejoin: miter; stroke-miterlimit: 4; fill: rgb(255,255,255); fill-rule: nonzero; opacity: 1;" vector-effect="non-scaling-stroke"  transform=" translate(-448.92, -2415.61)" d="M 715 3485 C 580 3455 497 3408 411 3314 C 293 3185 264 3047 310 2830 C 338 2702 338 2641 314 2599 C 285 2549 224 2511 153 2498 C 93 2487 92 2486 88 2451 C 87 2431 86 2399 88 2379 C 91 2344 92 2343 140 2337 C 230 2326 300 2276 325 2204 C 339 2162 338 2142 309 1998 C 263 1763 295 1632 434 1494 C 527 1402 641 1349 770 1338 L 805 1335 L 805 1403 L 805 1471 L 737 1495 C 654 1524 606 1559 580 1610 C 555 1660 555 1713 581 1836 C 593 1891 603 1976 603 2025 C 605 2109 602 2120 569 2190 C 526 2280 494 2320 418 2376 L 361 2418 L 400 2444 C 498 2508 578 2624 600 2734 C 613 2798 609 2853 579 2999 C 556 3109 555 3169 574 3213 C 595 3264 661 3314 741 3340 L 811 3362 L 808 3428 C 805 3505 805 3505 715 3485 z" stroke-linecap="round" />
</g>
		<g transform="matrix(0.13 0 0 -0.13 -131.35 0.19)"  >
<path style="stroke: none; stroke-width: 1; stroke-dasharray: none; stroke-linecap: butt; stroke-dashoffset: 0; stroke-linejoin: miter; stroke-miterlimit: 4; fill: rgb(255,255,255); fill-rule: nonzero; opacity: 1;" vector-effect="non-scaling-stroke"  transform=" translate(-1555.5, -2432.5)" d="M 940 3156 L 940 3082 L 1018 3079 C 1071 3076 1105 3069 1123 3057 L 1150 3040 L 1150 2439 C 1150 2067 1146 1832 1140 1820 C 1126 1794 1077 1780 1003 1780 L 939 1780 L 942 1708 L 945 1635 L 1315 1635 L 1685 1635 L 1688 1706 L 1691 1777 L 1611 1782 C 1514 1788 1485 1804 1477 1857 C 1473 1878 1470 2000 1470 2128 L 1470 2360 L 1619 2360 C 1764 2360 1768 2359 1792 2335 C 1820 2307 1830 2272 1830 2198 L 1830 2149 L 1903 2152 L 1975 2155 L 1978 2463 L 1980 2771 L 1908 2768 L 1836 2765 L 1825 2699 C 1805 2576 1778 2560 1588 2560 L 1470 2560 L 1470 2800 L 1470 3040 L 1648 3040 C 1745 3040 1843 3035 1864 3030 C 1939 3013 1982 2966 2015 2863 L 2037 2795 L 2105 2792 L 2172 2789 L 2166 2952 C 2162 3042 2157 3141 2154 3173 L 2148 3230 L 1544 3230 L 940 3230 L 940 3156 z" stroke-linecap="round" />
</g>
		<g transform="matrix(0.13 0 0 -0.13 90.61 0.51)"  >
<path style="stroke: none; stroke-width: 1; stroke-dasharray: none; stroke-linecap: butt; stroke-dashoffset: 0; stroke-linejoin: miter; stroke-miterlimit: 4; fill: rgb(255,255,255); fill-rule: nonzero; opacity: 1;" vector-effect="non-scaling-stroke"  transform=" translate(-3230, -2430)" d="M 2220 3155 L 2220 3080 L 2273 3080 C 2301 3080 2342 3075 2363 3069 C 2432 3050 2431 3064 2428 2410 C 2425 1730 2437 1792 2301 1783 L 2219 1777 L 2222 1706 L 2225 1635 L 2535 1635 L 2845 1635 L 2848 1706 L 2851 1777 L 2765 1782 C 2625 1789 2636 1750 2632 2258 C 2629 2544 2632 2682 2638 2675 C 2644 2670 2747 2449 2868 2185 C 2989 1921 3096 1688 3106 1668 C 3123 1632 3126 1630 3171 1630 C 3196 1630 3222 1636 3227 1643 C 3232 1649 3342 1886 3471 2168 L 3705 2681 L 3708 2278 C 3710 2015 3707 1862 3700 1838 C 3687 1794 3655 1780 3564 1780 L 3500 1780 L 3500 1705 L 3500 1630 L 3868 1632 L 4235 1635 L 4238 1708 L 4241 1780 L 4183 1780 C 4100 1780 4051 1796 4040 1826 C 4029 1854 4026 2990 4036 3028 C 4046 3063 4090 3080 4170 3080 L 4240 3080 L 4240 3155 L 4240 3230 L 3984 3228 L 3728 3225 L 3594 2930 C 3277 2236 3237 2149 3229 2157 C 3225 2161 3121 2383 2997 2650 C 2873 2917 2762 3157 2749 3183 L 2726 3230 L 2473 3230 L 2220 3230 L 2220 3155 z" stroke-linecap="round" />
</g>
</g>
</g>
</svg>